<svg id="Group_5" data-name="Group 5" xmlns="http://www.w3.org/2000/svg" width="150" height="166" viewBox="0 0 150 166">
  <text id="Không_có_đơn_nào" data-name="Không có đơn nào" transform="translate(0 162)" fill="#8898ad" font-size="16" font-family="Montserrat-Medium, Montserrat" font-weight="500"><tspan x="0" y="0">Không có đơn nào</tspan></text>
  <g id="Group_3" data-name="Group 3" transform="translate(5)">
    <ellipse id="Oval" cx="46.5" cy="5" rx="46.5" ry="5" transform="translate(18 112)" fill="#bfc9d6"/>
    <circle id="Oval-2" data-name="Oval" cx="8" cy="8" r="8" transform="translate(111)" fill="#bfc9d6" opacity="0.345"/>
    <circle id="Oval_Copy" data-name="Oval Copy" cx="3.5" cy="3.5" r="3.5" transform="translate(0 37)" fill="#bfc9d6" opacity="0.761"/>
    <circle id="Oval_Copy_4" data-name="Oval Copy 4" cx="5" cy="5" r="5" transform="translate(18 61)" fill="#bfc9d6" opacity="0.44"/>
    <g id="groceries" transform="translate(30 16)">
      <path id="Path" d="M23.258,34.8A3.979,3.979,0,0,0,24.412,32a3.523,3.523,0,0,0-1.32-2.8,3.639,3.639,0,0,0,0-5.608,3.676,3.676,0,0,0-.165-5.773c1.155-1.155,1.814-2.8,1.814-5.443A11.956,11.956,0,0,0,12.371,0C5.608,0,0,4.784,0,12.371c0,2.639.66,4.289,1.814,5.443A4.009,4.009,0,0,0,.33,20.784a3.523,3.523,0,0,0,1.32,2.8,3.639,3.639,0,0,0,0,5.608A3.523,3.523,0,0,0,.33,32a4.3,4.3,0,0,0,1.155,2.8,3.216,3.216,0,0,0-1.32,2.969v22.1c0,3.464,2.8,2.639,6.268,2.639H18.309c3.464,0,6.268.825,6.268-2.639v-22.1A3.41,3.41,0,0,0,23.258,34.8Z" transform="translate(0.289 9.237)" fill="#5fd6d6"/>
      <path id="Path-2" data-name="Path" d="M14.68,62.515c3.464,0,6.268.825,6.268-2.639v-22.1a3.41,3.41,0,0,0-1.32-2.969A3.979,3.979,0,0,0,20.784,32a3.523,3.523,0,0,0-1.32-2.8,3.639,3.639,0,0,0,0-5.608,3.676,3.676,0,0,0-.165-5.773c1.155-1.155,1.814-2.8,1.814-5.443A11.956,11.956,0,0,0,8.742,0,12.5,12.5,0,0,0,0,3.3" transform="translate(3.918 9.237)" fill="#42bec1"/>
      <rect id="Rectangle" width="9.402" height="2.969" transform="translate(8.041 7.258)" fill="#00637a"/>
      <path id="Path-3" data-name="Path" d="M13.856,7.093c0,1.155-.99.99-2.144.99H2.144C.99,8.082,0,8.247,0,7.093V2.144A2.183,2.183,0,0,1,2.144,0h9.567a2.183,2.183,0,0,1,2.144,2.144Z" transform="translate(5.897)" fill="#00669e"/>
      <path id="Path-4" data-name="Path" d="M0,0H9.567a2.183,2.183,0,0,1,2.144,2.144V7.093c0,1.155-.99.99-2.144.99" transform="translate(8.041)" fill="#004f77"/>
      <path id="SVGCleanerId_0" d="M2.474,1.649A4.984,4.984,0,0,1,5.113.825a4.984,4.984,0,0,1,2.639.825A3.975,3.975,0,0,1,10.227.99,12.85,12.85,0,0,0,5.113,0,13.442,13.442,0,0,0,0,.99,6.913,6.913,0,0,1,2.474,1.649Z" transform="translate(7.711 9.237)" fill="#2d9eaa"/>
      <path id="Path-5" data-name="Path" d="M24.412.33a4.88,4.88,0,0,1-1.649.33A6.916,6.916,0,0,1,20.124,0a4.84,4.84,0,0,1-2.639.66A6.916,6.916,0,0,1,14.845,0a4.84,4.84,0,0,1-2.639.66A6.916,6.916,0,0,1,9.567,0,4.84,4.84,0,0,1,6.928.66,6.916,6.916,0,0,1,4.289,0,4.84,4.84,0,0,1,1.649.66,5.861,5.861,0,0,1,0,.33v.99C0,3.959.66,5.608,1.814,6.763A4.009,4.009,0,0,0,.33,9.732a3.523,3.523,0,0,0,1.32,2.8,3.639,3.639,0,0,0,0,5.608,3.523,3.523,0,0,0-1.32,2.8,4.3,4.3,0,0,0,1.155,2.8,3.216,3.216,0,0,0-1.32,2.969v22.1c0,3.464,2.8,2.639,6.268,2.639H17.979c3.464,0,6.268.825,6.268-2.639v-22.1a3.41,3.41,0,0,0-1.32-2.969,3.979,3.979,0,0,0,1.155-2.8,3.523,3.523,0,0,0-1.32-2.8,3.639,3.639,0,0,0,0-5.608,3.523,3.523,0,0,0,1.32-2.8A3.527,3.527,0,0,0,22.6,6.763c1.155-1.155,1.814-2.8,1.814-5.443Z" transform="translate(0.619 20.289)" fill="#5fd6d6"/>
      <path id="SVGCleanerId_0_1_" d="M2.474,1.649A4.984,4.984,0,0,1,5.113.825a4.984,4.984,0,0,1,2.639.825A3.975,3.975,0,0,1,10.227.99,12.85,12.85,0,0,0,5.113,0,13.442,13.442,0,0,0,0,.99,6.913,6.913,0,0,1,2.474,1.649Z" transform="translate(7.711 9.237)" fill="#2d9eaa"/>
      <path id="Path-6" data-name="Path" d="M24.412.495a4.88,4.88,0,0,1-1.649.33A4.984,4.984,0,0,1,20.124,0a4.984,4.984,0,0,1-2.639.825A4.984,4.984,0,0,1,14.845,0a4.984,4.984,0,0,1-2.639.825A4.984,4.984,0,0,1,9.567,0,4.984,4.984,0,0,1,6.928.825,4.984,4.984,0,0,1,4.289,0,4.984,4.984,0,0,1,1.649.825,5.861,5.861,0,0,1,0,.495v.99C0,4.124.66,4.619,1.814,5.773A4.009,4.009,0,0,0,.33,8.742a3.523,3.523,0,0,0,1.32,2.8,3.639,3.639,0,0,0,0,5.608,3.523,3.523,0,0,0-1.32,2.8,4.3,4.3,0,0,0,1.155,2.8,3.216,3.216,0,0,0-1.32,2.969v22.1c0,3.464,2.8,2.639,6.268,2.639H17.979c3.464,0,6.268.825,6.268-2.639v-22.1a3.41,3.41,0,0,0-1.32-2.969,3.979,3.979,0,0,0,1.155-2.8,3.523,3.523,0,0,0-1.32-2.8,3.639,3.639,0,0,0,0-5.608,3.523,3.523,0,0,0,1.32-2.8A3.527,3.527,0,0,0,22.6,5.773c1.155-1.155,1.814-1.649,1.814-4.289Z" transform="translate(0.619 21.278)" fill="#2d9eaa"/>
      <g id="Group" transform="translate(1.443 28.041)">
        <ellipse id="Oval-3" data-name="Oval" cx="0.825" cy="1.649" rx="0.825" ry="1.649" transform="translate(0.33 0)" fill="#42bec1"/>
        <ellipse id="Oval-4" data-name="Oval" cx="0.825" cy="1.649" rx="0.825" ry="1.649" transform="translate(0.33 5.938)" fill="#42bec1"/>
        <ellipse id="Oval-5" data-name="Oval" cx="0.825" cy="1.649" rx="0.825" ry="1.649" transform="translate(0.33 11.876)" fill="#42bec1"/>
        <path id="Path-7" data-name="Path" d="M1.979,22.928a1.064,1.064,0,0,1-.99.99h0a1.064,1.064,0,0,1-.99-.99V.99A1.064,1.064,0,0,1,.99,0h0a1.064,1.064,0,0,1,.99.99Z" transform="translate(0.165 17.649)" fill="#42bec1"/>
      </g>
      <ellipse id="Oval-6" data-name="Oval" cx="2.804" cy="0.825" rx="2.804" ry="0.825" transform="translate(4.485 14.399) rotate(111.302)" fill="#91edea"/>
      <rect id="Rectangle-2" data-name="Rectangle" width="14.021" height="0.99" transform="translate(5.732 5.278)" fill="#168fc4"/>
      <g id="Group-2" data-name="Group" transform="translate(3.711 26.804)">
        <path id="Path-8" data-name="Path" d="M17.979.33a.355.355,0,0,1-.33.33H.33A.355.355,0,0,1,0,.33H0A.355.355,0,0,1,.33,0H17.814c.165,0,.165.165.165.33Z" transform="translate(0.041 0.082)" fill="#42bec1"/>
        <path id="Path-9" data-name="Path" d="M17.979.33a.355.355,0,0,1-.33.33H.33A.355.355,0,0,1,0,.33H0A.355.355,0,0,1,.33,0H17.814c.165,0,.165.165.165.33Z" transform="translate(0.041 5.856)" fill="#42bec1"/>
        <path id="Path-10" data-name="Path" d="M17.979.33a.355.355,0,0,1-.33.33H.33A.355.355,0,0,1,0,.33H0A.355.355,0,0,1,.33,0H17.814c.165,0,.165.165.165.33Z" transform="translate(0.041 11.464)" fill="#42bec1"/>
        <path id="Path-11" data-name="Path" d="M17.979.33a.355.355,0,0,1-.33.33H.33A.355.355,0,0,1,0,.33H0A.355.355,0,0,1,.33,0H17.814c.165,0,.165.165.165.33Z" transform="translate(0.041 17.237)" fill="#42bec1"/>
      </g>
      <g id="Group-3" data-name="Group" transform="translate(3.711 45.155)">
        <path id="Path-12" data-name="Path" d="M.66,7.588A.71.71,0,0,1,0,6.928,6.97,6.97,0,0,1,6.928,0a.71.71,0,0,1,.66.66.71.71,0,0,1-.66.66A5.492,5.492,0,0,0,1.485,6.763C1.32,7.258.99,7.588.66,7.588Z" transform="translate(0.041 6.309)" fill="#5fd6d6"/>
        <path id="Path-13" data-name="Path" d="M6.928,0a.71.71,0,0,1,.66.66A6.97,6.97,0,0,1,.66,7.588.71.71,0,0,1,0,6.928a.71.71,0,0,1,.66-.66A5.492,5.492,0,0,0,6.1.825C6.268.33,6.6,0,6.928,0Z" transform="translate(5.814 0.041)" fill="#5fd6d6"/>
        <path id="Path-14" data-name="Path" d="M.66,7.588A.71.71,0,0,1,0,6.928,6.97,6.97,0,0,1,6.928,0a.71.71,0,0,1,.66.66.71.71,0,0,1-.66.66A5.492,5.492,0,0,0,1.485,6.763C1.32,7.258.99,7.588.66,7.588Z" transform="translate(2.351 9.608)" fill="#5fd6d6"/>
        <path id="Path-15" data-name="Path" d="M6.928,0a.71.71,0,0,1,.66.66A6.97,6.97,0,0,1,.66,7.588.71.71,0,0,1,0,6.928a.71.71,0,0,1,.66-.66A5.492,5.492,0,0,0,6.1.825C6.268.33,6.6,0,6.928,0Z" transform="translate(8.124 3.34)" fill="#5fd6d6"/>
        <path id="Path-16" data-name="Path" d="M.66,7.588A.71.71,0,0,1,0,6.928,6.97,6.97,0,0,1,6.928,0a.71.71,0,0,1,.66.66.71.71,0,0,1-.66.66A5.492,5.492,0,0,0,1.485,6.763C1.32,7.258.99,7.588.66,7.588Z" transform="translate(4.66 12.742)" fill="#5fd6d6"/>
        <path id="Path-17" data-name="Path" d="M6.928,0a.71.71,0,0,1,.66.66A6.97,6.97,0,0,1,.66,7.588.71.71,0,0,1,0,6.928a.71.71,0,0,1,.66-.66A5.492,5.492,0,0,0,6.1.825C6.268.33,6.6,0,6.928,0Z" transform="translate(10.433 6.639)" fill="#5fd6d6"/>
      </g>
      <path id="Path-18" data-name="Path" d="M11.381.66a.71.71,0,0,1-.66.66H.66A.71.71,0,0,1,0,.66H0A.71.71,0,0,1,.66,0H10.722a.71.71,0,0,1,.66.66Z" transform="translate(7.216 0.66)" fill="#0579ad"/>
      <path id="Path-19" data-name="Path" d="M31.388,30.719c-6.763,6.763-17.32,5.113-24.742-2.309S-2.591,10.431,4.337,3.668C11.1-3.095,19.842.2,27.43,7.792,34.687,15.214,38.151,23.957,31.388,30.719Z" transform="translate(22.344 16.126)" fill="#c92b00"/>
      <path id="Path-20" data-name="Path" d="M20.619,0c7.423,7.423,10.887,16.165,4.124,23.093C17.979,29.856,7.423,28.206,0,20.784" transform="translate(28.99 23.918)" fill="#a01c02"/>
      <g id="Group-4" data-name="Group" transform="translate(28.454 16.701)">
        <ellipse id="Oval-7" data-name="Oval" cx="1.979" cy="5.278" rx="1.979" ry="5.278" transform="translate(3.185 3.943) rotate(-74.794)" fill="#ef4220"/>
        <circle id="Oval-8" data-name="Oval" cx="1.155" cy="1.155" r="1.155" transform="translate(0.015 3.278)" fill="#ef4220"/>
      </g>
      <path id="Path-21" data-name="Path" d="M11.745,11.8c-.99.99-4.289-.99-7.423-4.124S-.626,1.081.2.257c.99-.99,4.289.99,7.423,4.124S12.57,10.813,11.745,11.8Z" transform="translate(43.142 18.383)" fill="#5ea304"/>
      <path id="Path-22" data-name="Path" d="M10.363,10.363C9.7,11.022,6.9,9.208,4.094,6.4S-.524.8.136.136,3.6,1.29,6.4,4.094,11.022,9.7,10.363,10.363Z" transform="translate(44.359 18.668)" fill="#388c02"/>
      <path id="Path-23" data-name="Path" d="M0,0V4.619H4.454Z" transform="translate(45.32 23.588)" fill="#5ea304"/>
      <path id="Path-24" data-name="Path" d="M1.814,0,0,2.639H4.454Z" transform="translate(45.32 25.567)" fill="#388c02"/>
      <path id="Path-25" data-name="Path" d="M1.32,0,0,3.794,3.794,4.948Z" transform="translate(41.856 18.804)" fill="#5ea304"/>
      <g id="Group-5" data-name="Group" transform="translate(41.856 20.825)">
        <path id="Path-26" data-name="Path" d="M2.309,0,0,1.649,3.794,2.8Z" transform="translate(0 0.124)" fill="#388c02"/>
        <path id="Path-27" data-name="Path" d="M4.948,2.474,1.155,3.629,0,0Z" transform="translate(7.918 7.052)" fill="#388c02"/>
      </g>
      <path id="Path-28" data-name="Path" d="M2.8,1.485,1.155,3.629,0,0Z" transform="translate(49.773 27.876)" fill="#5ea304"/>
      <path id="Path-29" data-name="Path" d="M2.144,5.278,0,3.134,3.959,0,5.113,1.32Z" transform="translate(48.948 19.299)" fill="#388c02"/>
      <path id="Path-30" data-name="Path" d="M1.814,0,2.969,1.32,0,5.278" transform="translate(51.093 19.299)" fill="#036d2e"/>
      <g id="Group-6" data-name="Group" transform="translate(45.155 19.175)">
        <path id="Path-31" data-name="Path" d="M1.32,1.363C1.155,1.528.825,1.2.495.869A1.507,1.507,0,0,1,0,.044C.165-.121.495.209.825.539,1.32.869,1.485,1.2,1.32,1.363Z" transform="translate(7.588 0.08)" fill="#5ea304"/>
        <path id="Oval-9" data-name="Oval" d="M.5,3.628c.273,0,.495-.812.495-1.814S.773,0,.5,0,.005.812.005,1.814.227,3.628.5,3.628Z" transform="matrix(0.591, -0.807, 0.807, 0.591, 0.177, 0.928)" fill="#5ea304"/>
      </g>
      <path id="Path-32" data-name="Path" d="M32.33,0c6.6,17.979-5.773,40.412-28.866,50.969L0,52.454a31.147,31.147,0,0,0,26.557.33,30.867,30.867,0,0,0,15.01-41.072A29.573,29.573,0,0,0,32.33,0Z" transform="translate(21.072 7.753)" fill="#eabc49"/>
      <path id="Path-33" data-name="Path" d="M.495,52.454C38.928,50.474,43.052,19.134,34.8,1.979A25.99,25.99,0,0,0,32.33,0c6.6,17.979-5.773,40.412-28.866,50.969L0,52.454" transform="translate(20.907 7.918)" fill="#ffdc6c"/>
      <path id="Path-34" data-name="Path" d="M.495,52.619C28.7,43.711,40.082,19.794,34.309,1.649,33.649,1.155,32.99.495,32.33,0c6.6,17.979-5.773,40.412-28.866,50.969L0,52.454" transform="translate(21.072 7.753)" fill="#fcf7c5"/>
      <path id="Path-35" data-name="Path" d="M2.539,2.209,1.549.395A1.093,1.093,0,0,0,.395.065a.793.793,0,0,0-.33.99l.99,1.814A2.082,2.082,0,0,0,.889,4.848l1.32,1.814L5.178,4.848,4.023,3.034A1.18,1.18,0,0,0,2.539,2.209Z" transform="translate(52.678 7.028)" fill="#562300"/>
      <path id="Path-36" data-name="Path" d="M3.134,5.838l1.814-.99L3.794,3.034a1.446,1.446,0,0,0-1.649-.825L1.155.395A1.093,1.093,0,0,0,0,.065" transform="translate(53.072 7.028)" fill="#281000"/>
      <g id="Group-7" data-name="Group" transform="translate(21.031 10.103)">
        <path id="Path-37" data-name="Path" d="M0,.7c0,.33,0,.66.165.66S.33,1.033.33.7s0-.66-.165-.66C.165-.122,0,.208,0,.7Z" transform="translate(32.866 0.081)" fill="#8c4719"/>
        <path id="Path-38" data-name="Path" d="M4.289,0c-.33.165-.495.33-.825.33L0,1.814A30.7,30.7,0,0,0,4.124,3.464,6.044,6.044,0,0,0,4.289,0Z" transform="translate(0.041 48.289)" fill="#8c4719"/>
      </g>
      <path id="Path-39" data-name="Path" d="M0,.33A30.7,30.7,0,0,0,4.124,1.979,8.279,8.279,0,0,0,4.454,0" transform="translate(21.072 60.041)" fill="#281000"/>
      <path id="Path-40" data-name="Path" d="M3.959,0,0,10.887l6.6,2.474A31.051,31.051,0,0,0,10.722,2.474Z" transform="translate(54.557 35.299)" fill="#ce921b"/>
      <circle id="Oval-10" data-name="Oval" cx="5.773" cy="5.773" r="5.773" transform="translate(50.433 34.804)" fill="#3cbc0c"/>
      <path id="Path-41" data-name="Path" d="M3.959,0A5.952,5.952,0,0,1,7.423,7.423,5.81,5.81,0,0,1,0,10.887" transform="translate(54.227 35.134)" fill="#2b9907"/>
      <circle id="Oval-11" data-name="Oval" cx="3.629" cy="3.629" r="3.629" transform="translate(52.577 36.948)" fill="#017c1b"/>
      <path id="Path-42" data-name="Path" d="M0,2.349A3.677,3.677,0,0,1,4.619.205,3.677,3.677,0,0,1,6.763,4.824" transform="translate(52.742 36.908)" fill="#006b12"/>
      <path id="Path-43" data-name="Path" d="M1.32,0l1.32.99L4.124.495,3.629,1.979,4.454,3.3H2.8l-.99,1.32-.33-1.649L0,2.474l1.32-.825Z" transform="translate(53.897 38.598)" fill="#ffe000"/>
      <path id="Path-44" data-name="Path" d="M.825.495,2.309,0,1.814,1.485,2.639,2.8H.99L0,4.124" transform="translate(55.711 39.093)" fill="#ffc200"/>
      <path id="Path-45" data-name="Path" d="M65.979,2.186,64.165.371a1.5,1.5,0,0,0-1.979,0l-3.3,3.3-3.3-3.3a1.5,1.5,0,0,0-1.979,0l-3.3,3.3-3.3-3.3a1.5,1.5,0,0,0-1.979,0l-3.3,3.3-3.3-3.3a1.5,1.5,0,0,0-1.979,0l-3.3,3.3-3.3-3.3a1.5,1.5,0,0,0-1.979,0l-3.3,3.3-3.3-3.3a1.5,1.5,0,0,0-1.979,0L16,3.67,12.7.371a1.5,1.5,0,0,0-1.979,0l-3.3,3.3-3.3-3.3a1.5,1.5,0,0,0-1.979,0L.33,2.186a1.212,1.212,0,0,0-.33.99V65.031a6.089,6.089,0,0,0,6.1,6.1H59.711a6.089,6.089,0,0,0,6.1-6.1V3.175C66.309,2.845,66.144,2.515,65.979,2.186Z" transform="translate(0.124 28.825)" fill="#e8b18b"/>
      <g id="Group-8" data-name="Group" transform="translate(0 28.66)">
        <path id="Path-46" data-name="Path" d="M65.649,67.67a5.422,5.422,0,0,0,.66-2.8V3.175a2.344,2.344,0,0,0-.33-.99L64.165.371a1.5,1.5,0,0,0-1.979,0l-3.3,3.3-3.3-3.3a1.5,1.5,0,0,0-1.979,0l-3.3,3.3-3.3-3.3a1.5,1.5,0,0,0-1.979,0l-3.3,3.3-3.3-3.3a1.5,1.5,0,0,0-1.979,0l-3.3,3.3-3.3-3.3a1.5,1.5,0,0,0-1.979,0l-3.3,3.3-3.3-3.3a1.5,1.5,0,0,0-1.979,0L16,3.67,12.7.371a1.5,1.5,0,0,0-1.979,0l-3.3,3.3-3.3-3.3a1.5,1.5,0,0,0-1.979,0L.33,2.186,0,2.515Z" transform="translate(0.124 0.165)" fill="#e09b77"/>
        <path id="Path-47" data-name="Path" d="M0,0A6.194,6.194,0,0,0,5.608,3.629H59.216A6.194,6.194,0,0,0,64.825,0Z" transform="translate(0.948 67.67)" fill="#e09b77"/>
      </g>
    </g>
  </g>
</svg>
