<svg id="Group_25" data-name="Group 25" xmlns="http://www.w3.org/2000/svg" width="66.667" height="99.656" viewBox="0 0 66.667 99.656">
  <ellipse id="Oval" cx="31.667" cy="5.245" rx="31.667" ry="5.245" transform="translate(3.333 89.167)" fill="rgba(191,201,214,0.62)"/>
  <g id="Group_23" data-name="Group 23" transform="translate(9.79 24.476)">
    <rect id="Rectangle" width="7.522" height="29.735" transform="translate(1.763 19.51)" fill="#3f595b"/>
    <path id="Path" d="M39.96,63.7a3.16,3.16,0,0,1-3.173,3.173H3.173A3.16,3.16,0,0,1,0,63.7V3.173A3.16,3.16,0,0,1,3.173,0H36.787A3.16,3.16,0,0,1,39.96,3.173V63.7Z" transform="translate(5.876 3.056)" fill="#a2c0cc"/>
    <path id="Path-2" data-name="Path" d="M0,3.173A3.16,3.16,0,0,1,3.173,0H36.787A3.16,3.16,0,0,1,39.96,3.173V63.7a3.16,3.16,0,0,1-3.173,3.173" transform="translate(5.876 3.056)" fill="#95b3bc"/>
    <path id="Path-3" data-name="Path" d="M0,3.173A3.16,3.16,0,0,1,3.173,0H36.787A3.16,3.16,0,0,1,39.96,3.173" transform="translate(5.876 3.056)" fill="#a6c5cc"/>
    <path id="Path-4" data-name="Path" d="M33.378,13.986a3.16,3.16,0,0,1-3.173,3.173H3.173A3.16,3.16,0,0,1,0,13.986V3.173A3.16,3.16,0,0,1,3.173,0H30.205a3.16,3.16,0,0,1,3.173,3.173Z" transform="translate(9.167 19.51)" fill="#ee9720"/>
    <path id="Path-5" data-name="Path" d="M30.205,0H3.173A3.16,3.16,0,0,0,0,3.173v9.872a3.16,3.16,0,0,0,3.173,3.173H30.205a3.16,3.16,0,0,0,3.173-3.173V3.173A3.16,3.16,0,0,0,30.205,0Z" transform="translate(9.167 19.51)" fill="#ffbf66"/>
    <path id="Path-6" data-name="Path" d="M0,13.046a3.16,3.16,0,0,0,3.173,3.173H30.205a3.16,3.16,0,0,0,3.173-3.173V3.173A3.16,3.16,0,0,0,30.205,0" transform="translate(9.167 19.392)" fill="#ee9720" opacity="0.388"/>
    <path id="Path-7" data-name="Path" d="M32.086.353a.312.312,0,0,1-.353.353H.353A.312.312,0,0,1,0,.353H0A.312.312,0,0,1,.353,0h31.38a.375.375,0,0,1,.353.353Z" transform="translate(9.872 38.432)" fill="#84a6ad"/>
    <path id="Path-8" data-name="Path" d="M8.227,1.41c0,.705-.588,2.468-1.41,2.468H1.41C.705,3.878,0,2.233,0,1.41H0A1.429,1.429,0,0,1,1.41,0H6.817a1.429,1.429,0,0,1,1.41,1.41Z" transform="translate(10.108 41.37)" fill="#84a6ad"/>
    <path id="Path-9" data-name="Path" d="M8.227,1.41a1.429,1.429,0,0,1-1.41,1.41H1.41A1.429,1.429,0,0,1,0,1.41H0A1.429,1.429,0,0,1,1.41,0H6.817a1.429,1.429,0,0,1,1.41,1.41Z" transform="translate(10.108 41.37)" fill="#306687"/>
    <path id="Path-10" data-name="Path" d="M6.7,0H1.293A1.5,1.5,0,0,0,0,1.175a1.274,1.274,0,0,0,1.293.94H6.7a1.418,1.418,0,0,0,1.293-.94A1.381,1.381,0,0,0,6.7,0Z" transform="translate(10.225 41.253)" fill="#27a7c4"/>
    <path id="Path-11" data-name="Path" d="M6.7,0H1.293A1.418,1.418,0,0,0,0,.94a1.274,1.274,0,0,0,1.293.94H6.7A1.418,1.418,0,0,0,7.992.94,1.3,1.3,0,0,0,6.7,0Z" transform="translate(10.225 41.37)" fill="#2d8ca5"/>
    <path id="Path-12" data-name="Path" d="M0,1.88H5.406A1.418,1.418,0,0,0,6.7.94,1.274,1.274,0,0,0,5.406,0" transform="translate(11.635 41.488)" fill="#227b93"/>
    <path id="Path-13" data-name="Path" d="M8.227,1.41c0,.705-.588,2.468-1.41,2.468H1.41C.705,3.878,0,2.233,0,1.41H0A1.429,1.429,0,0,1,1.41,0H6.817a1.429,1.429,0,0,1,1.41,1.41Z" transform="translate(21.625 41.37)" fill="#84a6ad"/>
    <path id="Path-14" data-name="Path" d="M8.227,1.41a1.429,1.429,0,0,1-1.41,1.41H1.41A1.429,1.429,0,0,1,0,1.41H0A1.429,1.429,0,0,1,1.41,0H6.817a1.429,1.429,0,0,1,1.41,1.41Z" transform="translate(21.625 41.37)" fill="#306687"/>
    <path id="Path-15" data-name="Path" d="M6.7,0H1.293A1.5,1.5,0,0,0,0,1.175a1.274,1.274,0,0,0,1.293.94H6.7a1.418,1.418,0,0,0,1.293-.94C7.757.588,7.287,0,6.7,0Z" transform="translate(21.86 41.253)" fill="#27a7c4"/>
    <path id="Path-16" data-name="Path" d="M6.7,0H1.293A1.418,1.418,0,0,0,0,.94a1.274,1.274,0,0,0,1.293.94H6.7A1.418,1.418,0,0,0,7.992.94,1.56,1.56,0,0,0,6.7,0Z" transform="translate(21.86 41.37)" fill="#2d8ca5"/>
    <path id="Path-17" data-name="Path" d="M0,1.88H5.406A1.418,1.418,0,0,0,6.7.94,1.274,1.274,0,0,0,5.406,0" transform="translate(23.153 41.488)" fill="#227b93"/>
    <path id="Path-18" data-name="Path" d="M8.227,1.41c0,.705-.588,2.468-1.41,2.468H1.41C.705,3.878,0,2.233,0,1.41H0A1.429,1.429,0,0,1,1.41,0H6.817a1.429,1.429,0,0,1,1.41,1.41Z" transform="translate(33.261 41.37)" fill="#84a6ad"/>
    <path id="Path-19" data-name="Path" d="M8.227,1.41a1.429,1.429,0,0,1-1.41,1.41H1.41A1.429,1.429,0,0,1,0,1.41H0A1.429,1.429,0,0,1,1.41,0H6.817a1.429,1.429,0,0,1,1.41,1.41Z" transform="translate(33.261 41.37)" fill="#306687"/>
    <path id="Path-20" data-name="Path" d="M6.7,0H1.293A1.5,1.5,0,0,0,0,1.175a1.274,1.274,0,0,0,1.293.94H6.7a1.418,1.418,0,0,0,1.293-.94A1.5,1.5,0,0,0,6.7,0Z" transform="translate(33.378 41.253)" fill="#27a7c4"/>
    <path id="Path-21" data-name="Path" d="M6.7,0H1.293A1.418,1.418,0,0,0,0,.94a1.274,1.274,0,0,0,1.293.94H6.7A1.418,1.418,0,0,0,7.992.94,1.418,1.418,0,0,0,6.7,0Z" transform="translate(33.378 41.37)" fill="#2d8ca5"/>
    <path id="Path-22" data-name="Path" d="M0,1.88H5.406A1.418,1.418,0,0,0,6.7.94,1.274,1.274,0,0,0,5.406,0" transform="translate(34.789 41.488)" fill="#227b93"/>
    <path id="Path-23" data-name="Path" d="M8.227,1.41c0,.705-.588,2.468-1.41,2.468H1.41C.705,3.878,0,2.233,0,1.41H0A1.429,1.429,0,0,1,1.41,0H6.817a1.358,1.358,0,0,1,1.41,1.41Z" transform="translate(10.108 47.599)" fill="#84a6ad"/>
    <path id="Path-24" data-name="Path" d="M8.227,1.41a1.429,1.429,0,0,1-1.41,1.41H1.41A1.429,1.429,0,0,1,0,1.41H0A1.429,1.429,0,0,1,1.41,0H6.817a1.358,1.358,0,0,1,1.41,1.41Z" transform="translate(10.108 47.599)" fill="#306687"/>
    <path id="Path-25" data-name="Path" d="M6.7,0H1.293A1.5,1.5,0,0,0,0,1.175a1.274,1.274,0,0,0,1.293.94H6.7a1.418,1.418,0,0,0,1.293-.94A1.381,1.381,0,0,0,6.7,0Z" transform="translate(10.225 47.364)" fill="#27a7c4"/>
    <path id="Path-26" data-name="Path" d="M6.7,0H1.293A1.418,1.418,0,0,0,0,.94a1.274,1.274,0,0,0,1.293.94H6.7A1.418,1.418,0,0,0,7.992.94,1.189,1.189,0,0,0,6.7,0Z" transform="translate(10.225 47.599)" fill="#2d8ca5"/>
    <path id="Path-27" data-name="Path" d="M0,1.88H5.406A1.418,1.418,0,0,0,6.7.94,1.274,1.274,0,0,0,5.406,0" transform="translate(11.635 47.717)" fill="#227b93"/>
    <path id="Path-28" data-name="Path" d="M8.227,1.41c0,.705-.588,2.468-1.41,2.468H1.41C.705,3.878,0,2.233,0,1.41H0A1.429,1.429,0,0,1,1.41,0H6.817a1.358,1.358,0,0,1,1.41,1.41Z" transform="translate(21.625 47.599)" fill="#84a6ad"/>
    <path id="Path-29" data-name="Path" d="M8.227,1.41a1.429,1.429,0,0,1-1.41,1.41H1.41A1.429,1.429,0,0,1,0,1.41H0A1.429,1.429,0,0,1,1.41,0H6.817a1.358,1.358,0,0,1,1.41,1.41Z" transform="translate(21.625 47.599)" fill="#306687"/>
    <path id="Path-30" data-name="Path" d="M6.7,0H1.293A1.5,1.5,0,0,0,0,1.175a1.274,1.274,0,0,0,1.293.94H6.7a1.418,1.418,0,0,0,1.293-.94C7.757.588,7.287,0,6.7,0Z" transform="translate(21.86 47.364)" fill="#27a7c4"/>
    <path id="Path-31" data-name="Path" d="M6.7,0H1.293A1.418,1.418,0,0,0,0,.94a1.274,1.274,0,0,0,1.293.94H6.7A1.418,1.418,0,0,0,7.992.94,1.375,1.375,0,0,0,6.7,0Z" transform="translate(21.86 47.599)" fill="#2d8ca5"/>
    <path id="Path-32" data-name="Path" d="M0,1.88H5.406A1.418,1.418,0,0,0,6.7.94,1.274,1.274,0,0,0,5.406,0" transform="translate(23.153 47.717)" fill="#227b93"/>
    <path id="Path-33" data-name="Path" d="M8.227,1.41c0,.705-.588,2.468-1.41,2.468H1.41C.705,3.878,0,2.233,0,1.41H0A1.429,1.429,0,0,1,1.41,0H6.817a1.358,1.358,0,0,1,1.41,1.41Z" transform="translate(33.261 47.599)" fill="#84a6ad"/>
    <path id="Path-34" data-name="Path" d="M8.227,1.41a1.429,1.429,0,0,1-1.41,1.41H1.41A1.429,1.429,0,0,1,0,1.41H0A1.429,1.429,0,0,1,1.41,0H6.817a1.358,1.358,0,0,1,1.41,1.41Z" transform="translate(33.261 47.599)" fill="#306687"/>
    <path id="Path-35" data-name="Path" d="M6.7,0H1.293A1.5,1.5,0,0,0,0,1.175a1.274,1.274,0,0,0,1.293.94H6.7a1.418,1.418,0,0,0,1.293-.94A1.5,1.5,0,0,0,6.7,0Z" transform="translate(33.378 47.364)" fill="#27a7c4"/>
    <path id="Path-36" data-name="Path" d="M6.7,0H1.293A1.418,1.418,0,0,0,0,.94a1.274,1.274,0,0,0,1.293.94H6.7A1.418,1.418,0,0,0,7.992.94,1.274,1.274,0,0,0,6.7,0Z" transform="translate(33.378 47.599)" fill="#2d8ca5"/>
    <path id="Path-37" data-name="Path" d="M0,1.88H5.406A1.418,1.418,0,0,0,6.7.94,1.274,1.274,0,0,0,5.406,0" transform="translate(34.789 47.717)" fill="#227b93"/>
    <path id="Path-38" data-name="Path" d="M8.227,1.41c0,.705-.588,2.468-1.41,2.468H1.41C.705,3.878,0,2.233,0,1.41H0A1.429,1.429,0,0,1,1.41,0H6.817a1.513,1.513,0,0,1,1.41,1.41Z" transform="translate(10.108 53.711)" fill="#84a6ad"/>
    <path id="Path-39" data-name="Path" d="M8.227,1.41a1.429,1.429,0,0,1-1.41,1.41H1.41A1.429,1.429,0,0,1,0,1.41H0A1.429,1.429,0,0,1,1.41,0H6.817a1.513,1.513,0,0,1,1.41,1.41Z" transform="translate(10.108 53.711)" fill="#306687"/>
    <path id="Path-40" data-name="Path" d="M6.7,0H1.293A1.5,1.5,0,0,0,0,1.175a1.274,1.274,0,0,0,1.293.94H6.7a1.418,1.418,0,0,0,1.293-.94A1.381,1.381,0,0,0,6.7,0Z" transform="translate(10.225 53.593)" fill="#27a7c4"/>
    <path id="Path-41" data-name="Path" d="M6.7,0H1.293A1.418,1.418,0,0,0,0,.94a1.274,1.274,0,0,0,1.293.94H6.7A1.418,1.418,0,0,0,7.992.94,1.189,1.189,0,0,0,6.7,0Z" transform="translate(10.225 53.829)" fill="#2d8ca5"/>
    <path id="Path-42" data-name="Path" d="M0,1.88H5.406A1.418,1.418,0,0,0,6.7.94,1.274,1.274,0,0,0,5.406,0" transform="translate(11.635 53.829)" fill="#227b93"/>
    <path id="Path-43" data-name="Path" d="M8.227,1.41c0,.705-.588,2.468-1.41,2.468H1.41C.705,3.878,0,2.233,0,1.41H0A1.429,1.429,0,0,1,1.41,0H6.817a1.513,1.513,0,0,1,1.41,1.41Z" transform="translate(21.625 53.711)" fill="#84a6ad"/>
    <path id="Path-44" data-name="Path" d="M8.227,1.41a1.429,1.429,0,0,1-1.41,1.41H1.41A1.429,1.429,0,0,1,0,1.41H0A1.429,1.429,0,0,1,1.41,0H6.817a1.513,1.513,0,0,1,1.41,1.41Z" transform="translate(21.625 53.711)" fill="#306687"/>
    <path id="Path-45" data-name="Path" d="M6.7,0H1.293A1.5,1.5,0,0,0,0,1.175a1.274,1.274,0,0,0,1.293.94H6.7a1.418,1.418,0,0,0,1.293-.94C7.757.588,7.287,0,6.7,0Z" transform="translate(21.86 53.593)" fill="#27a7c4"/>
    <path id="Path-46" data-name="Path" d="M6.7,0H1.293A1.418,1.418,0,0,0,0,.94a1.274,1.274,0,0,0,1.293.94H6.7A1.418,1.418,0,0,0,7.992.94,1.375,1.375,0,0,0,6.7,0Z" transform="translate(21.86 53.829)" fill="#2d8ca5"/>
    <path id="Path-47" data-name="Path" d="M0,1.88H5.406A1.418,1.418,0,0,0,6.7.94,1.274,1.274,0,0,0,5.406,0" transform="translate(23.153 53.829)" fill="#227b93"/>
    <path id="Path-48" data-name="Path" d="M8.227,1.41c0,.705-.588,2.468-1.41,2.468H1.41C.705,3.878,0,2.233,0,1.41H0A1.429,1.429,0,0,1,1.41,0H6.817a1.513,1.513,0,0,1,1.41,1.41Z" transform="translate(33.261 53.711)" fill="#84a6ad"/>
    <path id="Path-49" data-name="Path" d="M8.227,1.41a1.429,1.429,0,0,1-1.41,1.41H1.41A1.429,1.429,0,0,1,0,1.41H0A1.429,1.429,0,0,1,1.41,0H6.817a1.513,1.513,0,0,1,1.41,1.41Z" transform="translate(33.261 53.711)" fill="#306687"/>
    <path id="Path-50" data-name="Path" d="M6.7,0H1.293A1.5,1.5,0,0,0,0,1.175a1.274,1.274,0,0,0,1.293.94H6.7a1.418,1.418,0,0,0,1.293-.94A1.5,1.5,0,0,0,6.7,0Z" transform="translate(33.378 53.593)" fill="#27a7c4"/>
    <path id="Path-51" data-name="Path" d="M6.7,0H1.293A1.418,1.418,0,0,0,0,.94a1.274,1.274,0,0,0,1.293.94H6.7A1.418,1.418,0,0,0,7.992.94,1.274,1.274,0,0,0,6.7,0Z" transform="translate(33.378 53.829)" fill="#2d8ca5"/>
    <path id="Path-52" data-name="Path" d="M0,1.88H5.406A1.418,1.418,0,0,0,6.7.94,1.274,1.274,0,0,0,5.406,0" transform="translate(34.789 53.829)" fill="#227b93"/>
    <path id="Path-53" data-name="Path" d="M8.227,1.41c0,.705-.588,2.468-1.41,2.468H1.41C.705,3.878,0,2.233,0,1.41H0A1.429,1.429,0,0,1,1.41,0H6.817a1.358,1.358,0,0,1,1.41,1.41Z" transform="translate(10.108 59.94)" fill="#84a6ad"/>
    <path id="Path-54" data-name="Path" d="M8.227,1.41a1.429,1.429,0,0,1-1.41,1.41H1.41A1.429,1.429,0,0,1,0,1.41H0A1.429,1.429,0,0,1,1.41,0H6.817a1.358,1.358,0,0,1,1.41,1.41Z" transform="translate(10.108 59.94)" fill="#900"/>
    <path id="Path-55" data-name="Path" d="M6.7,0H1.293A1.5,1.5,0,0,0,0,1.175a1.274,1.274,0,0,0,1.293.94H6.7a1.418,1.418,0,0,0,1.293-.94A1.381,1.381,0,0,0,6.7,0Z" transform="translate(10.225 59.823)" fill="#f73131"/>
    <path id="Path-56" data-name="Path" d="M6.7,0H1.293A1.418,1.418,0,0,0,0,.94a1.274,1.274,0,0,0,1.293.94H6.7A1.418,1.418,0,0,0,7.992.94,1.3,1.3,0,0,0,6.7,0Z" transform="translate(10.225 59.94)" fill="#d10d0d"/>
    <path id="Path-57" data-name="Path" d="M0,1.88H5.406A1.418,1.418,0,0,0,6.7.94,1.274,1.274,0,0,0,5.406,0" transform="translate(11.635 60.058)" fill="#b70404"/>
    <path id="Path-58" data-name="Path" d="M8.227,1.41c0,.705-.588,2.468-1.41,2.468H1.41C.705,3.878,0,2.233,0,1.41H0A1.429,1.429,0,0,1,1.41,0H6.817a1.358,1.358,0,0,1,1.41,1.41Z" transform="translate(21.625 59.94)" fill="#84a6ad"/>
    <path id="Path-59" data-name="Path" d="M8.227,1.41a1.429,1.429,0,0,1-1.41,1.41H1.41A1.429,1.429,0,0,1,0,1.41H0A1.429,1.429,0,0,1,1.41,0H6.817a1.358,1.358,0,0,1,1.41,1.41Z" transform="translate(21.625 59.94)" fill="#306687"/>
    <path id="Path-60" data-name="Path" d="M6.7,0H1.293A1.5,1.5,0,0,0,0,1.175a1.274,1.274,0,0,0,1.293.94H6.7a1.418,1.418,0,0,0,1.293-.94C7.757.588,7.287,0,6.7,0Z" transform="translate(21.86 59.823)" fill="#27a7c4"/>
    <path id="Path-61" data-name="Path" d="M6.7,0H1.293A1.418,1.418,0,0,0,0,.94a1.274,1.274,0,0,0,1.293.94H6.7A1.418,1.418,0,0,0,7.992.94,1.56,1.56,0,0,0,6.7,0Z" transform="translate(21.86 59.94)" fill="#2d8ca5"/>
    <path id="Path-62" data-name="Path" d="M0,1.88H5.406A1.418,1.418,0,0,0,6.7.94,1.274,1.274,0,0,0,5.406,0" transform="translate(23.153 60.058)" fill="#227b93"/>
    <path id="Path-63" data-name="Path" d="M8.227,1.41c0,.705-.588,2.468-1.41,2.468H1.41C.705,3.878,0,2.233,0,1.41H0A1.429,1.429,0,0,1,1.41,0H6.817a1.358,1.358,0,0,1,1.41,1.41Z" transform="translate(33.261 59.94)" fill="#84a6ad"/>
    <path id="Path-64" data-name="Path" d="M8.227,1.41a1.429,1.429,0,0,1-1.41,1.41H1.41A1.429,1.429,0,0,1,0,1.41H0A1.429,1.429,0,0,1,1.41,0H6.817a1.358,1.358,0,0,1,1.41,1.41Z" transform="translate(33.261 59.94)" fill="#599316"/>
    <path id="Path-65" data-name="Path" d="M6.7,0H1.293A1.5,1.5,0,0,0,0,1.175a1.274,1.274,0,0,0,1.293.94H6.7a1.418,1.418,0,0,0,1.293-.94A1.5,1.5,0,0,0,6.7,0Z" transform="translate(33.378 59.823)" fill="#8fdd3c"/>
    <path id="Path-66" data-name="Path" d="M6.7,0H1.293A1.418,1.418,0,0,0,0,.94a1.274,1.274,0,0,0,1.293.94H6.7A1.418,1.418,0,0,0,7.992.94,1.418,1.418,0,0,0,6.7,0Z" transform="translate(33.378 59.94)" fill="#79c430"/>
    <path id="Path-67" data-name="Path" d="M0,1.88H5.406A1.418,1.418,0,0,0,6.7.94,1.274,1.274,0,0,0,5.406,0" transform="translate(34.789 60.058)" fill="#67ad1e"/>
    <path id="Path-68" data-name="Path" d="M39.96,0a3.16,3.16,0,0,1-3.173,3.173H3.173A3.16,3.16,0,0,1,0,0" transform="translate(5.876 66.757)" fill="#84a6ad"/>
    <path id="Path-69" data-name="Path" d="M29.853,1.88a1.856,1.856,0,0,1-1.88,1.88H1.88A1.856,1.856,0,0,1,0,1.88H0A1.856,1.856,0,0,1,1.88,0H27.854a1.958,1.958,0,0,1,2,1.88Z" transform="translate(10.93 12.223)" fill="#2f4344"/>
    <path id="Path-70" data-name="Path" d="M29.853,0h0a1.856,1.856,0,0,1-1.88,1.88H1.88A1.856,1.856,0,0,1,0,0H0" transform="translate(10.93 14.104)" fill="#3f595b"/>
    <path id="Path-71" data-name="Path" d="M22.331,15.984V1.41A1.429,1.429,0,0,0,20.92,0H1.41A1.429,1.429,0,0,0,0,1.41V15.984Z" transform="translate(14.691 0)" fill="#cee0e0"/>
    <path id="Path-72" data-name="Path" d="M20.92,15.984V1.41A1.429,1.429,0,0,0,19.51,0H0" transform="translate(16.102 0)" fill="#bfd1d0"/>
    <rect id="Rectangle-2" data-name="Rectangle" width="22.448" height="4.584" transform="translate(14.574 11.4)" fill="#acc1c0"/>
    <path id="Path-73" data-name="Path" d="M5.876,4.584V0H0Z" transform="translate(31.145 11.4)" fill="#9db2b1"/>
    <path id="Path-74" data-name="Path" d="M3.056,30.558a1.556,1.556,0,0,1-1.528,1.528h0A1.556,1.556,0,0,1,0,30.558V1.528A1.556,1.556,0,0,1,1.528,0h0c.823,0,1.528.235,1.528,1.058Z" transform="translate(0 19.392)" fill="#a2c0cc"/>
  </g>
  <circle id="Oval-2" data-name="Oval" cx="3.846" cy="3.846" r="3.846" transform="translate(58.741 18.881)" fill="#bfc9d6"/>
  <circle id="Oval_Copy_4" data-name="Oval Copy 4" cx="5.245" cy="5.245" r="5.245" transform="translate(2.098 0)" fill="#bfc9d6" opacity="0.294"/>
  <circle id="Oval_Copy" data-name="Oval Copy" cx="2.098" cy="2.098" r="2.098" transform="translate(0 22.378)" fill="#bfc9d6"/>
</svg>
